<svg viewBox="0 0 20 20" xmlns="http://www.w3.org/2000/svg"><path d="m0 0h20v20h-20z" fill="none"/><path d="m3.76 17.01h12.48c1.1-1.38 1.76-3.11 1.76-5.01 0-4.41-3.58-8-8-8s-8 3.59-8 8c0 1.9.66 3.63 1.76 5.01zm5.24-11.01c0-.55.45-1 1-1s1 .45 1 1c0 .56-.45 1-1 1s-1-.44-1-1zm-5 2c0-.55.45-1 1-1s1 .45 1 1c0 .56-.45 1-1 1s-1-.44-1-1zm4.52 3.4c.84-.83 6.51-3.5 6.51-3.5s-2.66 5.68-3.49 6.51c-.84.84-2.18.84-3.02 0-.83-.83-.83-2.18 0-3.01zm-5.52 1.6c0-.55.45-1 1-1s1 .45 1 1c0 .56-.45 1-1 1s-1-.44-1-1zm6 0c0-.55.45-1 1-1s1 .45 1 1c0 .56-.45 1-1 1s-1-.44-1-1zm6 0c0-.55.45-1 1-1s1 .45 1 1c0 .56-.45 1-1 1s-1-.44-1-1z" style="fill: rgb(255, 255, 255);"/></svg>